PathFileType	4	(X/Y/Z)	c:/Users/goper/Files/vsCode/490R/osim_files/C05/C05_SSWS_05.trc
DataRate	CameraRate	NumFrames	NumMarkers	Units                	OrigDataRate	OrigDataStartFrame	OrigNumFrames
250.00	250.00	7	36	mm	250.0	1739	2781
                Frame#	Time	LPSIS			LASIS			LTH1			LTH2			LTH3			LTH4			LLFE			LMFE			LSH1			LSH2			LSH3			LSH4			LLMAL			LMMAL			LCAL			LMTP5			LTOE			LMTP1			RPSIS			RASIS			RTH1			RTH2			RTH3			RTH4			RLFE			RMFE			RSH1			RSH2			RSH3			RSH4			RLMAL			RMMAL			RCAL			RMTP1			RTOE			RMTP5		
		X1	Y1	Z1	X2	Y2	Z2	X3	Y3	Z3	X4	Y4	Z4	X5	Y5	Z5	X6	Y6	Z6	X7	Y7	Z7	X8	Y8	Z8	X9	Y9	Z9	X10	Y10	Z10	X11	Y11	Z11	X12	Y12	Z12	X13	Y13	Z13	X14	Y14	Z14	X15	Y15	Z15	X16	Y16	Z16	X17	Y17	Z17	X18	Y18	Z18	X19	Y19	Z19	X20	Y20	Z20	X21	Y21	Z21	X22	Y22	Z22	X23	Y23	Z23	X24	Y24	Z24	X25	Y25	Z25	X26	Y26	Z26	X27	Y27	Z27	X28	Y28	Z28	X29	Y29	Z29	X30	Y30	Z30	X31	Y31	Z31	X32	Y32	Z32	X33	Y33	Z33	X34	Y34	Z34	X35	Y35	Z35	X36	Y36	Z36

1739	6.95200	-1163.74768	1042.45959	271.38147	-1360.41980	1015.33826	330.79910	-1377.02063	702.23328	374.63181	-1412.96741	650.88165	365.10657	-1443.52686	740.29254	372.71313	-1469.44678	685.30280	362.60254	-1495.32007	578.78241	344.67737	-1497.79138	568.21234	225.92410	-1412.50781	401.75024	356.33542	-1417.98694	357.69992	354.21167	-1474.84363	401.59454	372.91443	-1470.23193	358.64944	368.19785	-1445.43628	131.71643	342.42651	-1483.17944	136.64766	262.44373	-1394.10718	94.73937	283.60995	-1576.11572	72.12820	393.99612	-1620.19470	97.15033	333.16724	-1614.14978	73.13673	286.99438	-1172.35193	1056.57031	163.39117	-1367.73889	1020.39941	100.07642	-1225.06067	680.94934	51.56492	-1233.28162	619.94568	64.67913	-1300.48279	685.05591	55.59538	-1298.26611	623.16943	67.37373	0.00000	0.00000	0.00000	-1262.26270	528.57733	85.33083	-1156.56360	384.42026	73.56556	-1153.28333	336.77078	80.51115	-1216.26270	371.86429	78.72607	-1204.68494	327.18353	85.52261	-1127.00745	104.24168	134.28577	-1148.95630	114.98286	218.11375	-1061.17834	77.31816	181.63319	-1278.05078	43.00758	208.09619	-1299.58923	65.08223	159.68266	-1248.29309	38.86600	96.11004
1740	6.95600	-1168.16113	1041.88586	271.64340	-1364.97693	1014.79877	330.77548	-1380.10095	701.26923	374.41129	-1416.15625	649.69458	364.82303	-1446.78625	739.22192	372.61243	-1472.77771	683.97461	362.57373	-1498.66589	577.73700	344.80322	-1501.05237	567.03717	226.01329	-1419.42200	398.68686	356.17065	-1426.09241	354.67480	353.91089	-1481.63281	400.16623	372.96701	-1478.15234	357.19122	368.20193	-1459.94897	129.47855	342.13571	-1497.51904	135.59929	262.50076	-1409.49561	91.38544	283.21353	-1591.96021	73.08117	393.73465	-1635.52844	99.41068	333.04770	-1630.25745	75.35654	286.81339	-1176.58923	1056.14856	163.68669	-1371.75415	1019.79211	99.96308	-1227.51721	680.79474	51.37103	-1235.49304	619.79340	64.60050	-1303.34814	684.39404	55.88318	-1300.44409	622.80243	67.44549	0.00000	0.00000	0.00000	-1263.82153	528.29614	85.22778	-1157.48108	384.52521	73.54185	-1154.17590	336.87265	80.47784	-1217.25781	371.73685	78.70892	-1205.50903	327.09314	85.47442	-1127.17053	104.40422	134.39542	-1149.17395	115.05079	218.20764	-1061.24561	77.49918	181.69405	-1278.07617	42.91631	208.08675	-1299.68164	64.98096	159.67987	-1248.31177	38.84835	96.10751
1741	6.96000	-1172.55103	1041.40491	271.93347	-1369.53137	1014.18091	330.72699	-1383.34888	700.10883	374.13309	-1419.13660	648.19910	364.79010	-1450.27319	737.57080	372.63541	-1475.90515	682.53784	362.56458	-1501.81213	576.52734	345.02808	-1504.30676	565.71368	226.16800	-1426.19312	395.59772	356.05600	-1434.18298	351.58163	353.70392	-1488.29529	398.71844	373.10632	-1485.73596	355.46957	368.32520	-1474.30823	127.42598	341.81616	-1511.88196	134.71300	262.20847	-1425.00671	88.10500	282.73367	-1607.76270	74.40671	393.43066	-1650.63184	101.85249	332.86307	-1646.03394	77.93003	286.42792	-1180.74658	1055.71875	164.00870	-1375.79138	1019.21368	99.88420	-1229.97009	680.64374	51.18184	-1237.63232	619.65332	64.44331	-1305.84473	683.98676	56.02387	-1302.61536	622.44061	67.55453	0.00000	0.00000	0.00000	-1265.45203	528.07977	85.08566	-1158.60803	384.57291	73.51487	-1155.05823	336.94232	80.45893	-1218.33887	371.68228	78.59414	-1206.40674	327.06259	85.39146	-1127.33740	104.57821	134.47861	-1149.36902	115.10818	218.30234	-1061.31421	77.65869	181.73340	-1278.07349	42.80611	208.10480	-1299.74438	64.86411	159.68036	-1248.35254	38.82937	96.11528
1742	6.96400	-1177.08643	1040.79565	272.21432	-1374.08765	1013.52570	330.72620	-1386.38037	698.87036	373.81006	-1421.99915	647.09747	364.42215	-1453.44971	736.12750	372.74881	-1478.92480	680.90277	362.67685	-1505.06067	575.12006	345.32538	-1507.39758	564.28418	226.39072	-1433.03198	392.48706	355.96683	-1442.14490	348.68234	353.75061	-1494.91370	397.19904	373.21957	-1494.00110	354.11163	368.77979	-1488.57031	125.49776	341.47983	-1525.99365	134.05440	261.88245	-1440.39404	85.18456	282.23828	-1623.27405	75.93244	393.04343	-1665.65845	104.66418	332.62415	-1661.56519	80.60922	286.21933	-1185.08398	1055.24414	164.31288	-1379.79004	1018.61298	99.87032	-1232.37683	680.55798	51.02173	-1239.86218	619.46875	64.38985	-1308.29053	683.65308	56.07470	-1304.76196	622.05682	67.69915	0.00000	0.00000	0.00000	-1267.04028	527.82544	84.96766	-1159.58960	384.64938	73.47998	-1156.00073	337.02017	80.43425	-1219.33264	371.52850	78.57634	-1207.32483	327.01013	85.37590	-1127.52722	104.75848	134.58789	-1149.54895	115.17262	218.41518	-1061.43164	77.80333	181.80611	-1278.05591	42.44223	207.88618	-1299.94275	64.77009	159.49606	-1248.35583	38.81285	96.12521
1743	6.96800	-1181.57104	1040.24780	272.48026	-1378.61279	1012.83502	330.69574	-1389.37952	697.55731	373.58209	-1424.81055	645.66449	364.27780	-1456.75061	734.51263	372.89801	-1481.97241	679.22278	362.89047	-1508.08044	573.68542	345.62704	-1510.49841	562.72485	226.56480	-1439.81897	389.41656	355.97330	-1450.02502	345.95389	353.95300	-1501.60425	395.67297	373.38788	-1501.47852	352.49469	368.37570	-1502.73645	123.85996	341.00323	-1539.95068	133.57791	261.48218	-1455.67029	82.35783	281.69873	-1638.63745	77.71762	392.59860	-1680.63855	107.94369	332.03751	-1676.92517	83.65607	285.77145	-1189.42920	1054.65759	164.65842	-1383.94287	1017.97058	99.80283	-1234.93347	680.39703	50.86447	-1242.05493	619.33038	64.25427	-1310.73926	683.35663	56.09249	-1306.95056	621.80377	67.71417	0.00000	0.00000	0.00000	-1268.83105	527.58844	84.81793	-1160.80542	384.72086	73.42560	-1156.91479	337.11331	80.41324	-1220.37048	371.46436	78.45451	-1207.80518	326.69977	85.40926	-1127.68518	104.91885	134.66234	-1149.64600	115.17723	218.36118	-1061.55945	77.96246	181.85811	-1278.10596	42.56602	208.11401	-1300.03442	64.65182	159.49838	-1248.34863	38.80344	96.08726
1744	6.97200	-1186.09094	1039.58435	272.83289	-1383.16614	1012.09637	330.64725	-1391.35522	696.12457	373.65536	-1427.50427	644.09943	364.18771	-1459.76428	732.71417	373.08078	-1484.79517	677.37158	363.08368	-1511.10376	572.06146	346.00690	-1513.59534	561.02771	226.91661	-1446.68359	386.35294	356.12012	-1457.91052	343.30197	354.14883	-1508.20935	394.16751	373.53149	-1509.14270	351.00858	368.41223	-1516.85217	122.40166	340.57526	-1553.80005	133.34079	261.01672	-1471.23499	79.74254	280.90485	-1653.89258	79.80772	392.08353	-1694.71680	110.92387	331.81970	-1691.99670	86.95735	285.18332	-1193.63281	1054.18066	165.00566	-1387.98511	1017.28271	99.76775	-1237.48328	680.23621	50.70801	-1244.40613	619.14423	64.11747	-1313.25806	682.96704	56.22686	-1309.24255	621.40222	67.80671	0.00000	0.00000	0.00000	-1270.43152	527.31396	84.63393	-1161.80054	384.84384	73.37227	-1157.85144	337.23508	80.32711	-1221.50342	371.35425	78.37205	-1209.15967	326.91162	85.21484	-1127.86475	105.06850	134.72290	-1149.97827	115.29931	218.54295	-1061.71875	78.14021	181.92978	-1278.08887	42.22577	207.88791	-1300.13525	64.52926	159.50522	-1248.34839	38.80587	96.08595
1745	6.97600	-1190.75842	1038.98303	273.08914	-1387.92078	1011.36084	330.59201	-1394.51233	694.75507	373.47275	-1429.99841	642.41571	364.14185	-1462.82520	730.91174	373.36752	-1487.47925	675.34576	363.33273	-1514.16089	570.37476	346.41797	-1516.52893	559.19366	227.15491	-1453.53516	383.36041	356.25302	-1465.84717	340.64899	354.22714	-1514.85889	392.70239	373.72284	-1516.92603	349.51819	368.52426	-1530.75867	121.21346	340.00317	-1567.38367	133.31195	260.50034	-1486.23022	77.52596	280.22574	-1668.97217	82.11364	391.46481	-1708.92371	114.43400	331.21259	-1706.75977	90.56088	284.54523	-1198.16064	1053.57898	165.38089	-1392.17712	1016.68195	99.66202	-1240.05542	680.17450	50.55098	-1246.71069	618.99805	63.95692	-1315.51501	682.76526	56.13415	-1311.58813	621.01239	67.95966	0.00000	0.00000	0.00000	-1272.08875	527.08038	84.46114	-1163.05798	384.96240	73.23969	-1158.89075	337.36292	80.26418	-1222.45398	371.22113	78.30562	-1210.06653	326.83813	85.13258	-1128.06836	105.24188	134.76346	-1150.19995	115.39838	218.59985	-1061.84558	78.34241	181.98090	-1277.71875	42.23090	208.24580	-1300.23779	64.40910	159.49547	-1248.32751	38.92091	95.92856
